<svg width="60" height="60" viewBox="0 0 60 60" fill="none" xmlns="http://www.w3.org/2000/svg">
<path d="M38.8633 1.33594L30 30L58.8672 21.8281" stroke="#111111"/>
<path fill-rule="evenodd" clip-rule="evenodd" d="M59 30C59 46.0163 46.0163 59 30 59C13.9837 59 1 46.0163 1 30C1 13.9837 13.9837 1 30 1C33.153 1 36.1884 1.50317 39.0304 2.43358L39.3418 1.48302C36.4018 0.520518 33.2617 0 30 0C13.4315 0 0 13.4315 0 30C0 46.5685 13.4315 60 30 60C46.5685 60 60 46.5685 60 30C60 26.9896 59.5566 24.0827 58.7315 21.3412L57.7738 21.6298C58.5714 24.28 59 27.0899 59 30Z" fill="#111111"/>
</svg>
