<svg width="13" height="6" viewBox="0 0 13 6" fill="none" xmlns="http://www.w3.org/2000/svg">
<path d="M0.15298 0.13356C0.252994 0.0479359 0.387253 0 0.527059 0C0.666865 0 0.801125 0.0479359 0.901138 0.13356L6.5 4.91726L12.0977 0.13356C12.1978 0.0479359 12.332 0 12.4718 0C12.6116 0 12.7459 0.0479359 12.8459 0.13356C12.8947 0.175179 12.9334 0.22494 12.9599 0.279905C12.9864 0.33487 13 0.393925 13 0.453586C13 0.513246 12.9864 0.572302 12.9599 0.627267C12.9334 0.682232 12.8947 0.731993 12.8459 0.773612L6.89088 5.86065C6.7863 5.95 6.64604 6 6.5 6C6.35396 6 6.2137 5.95 6.10912 5.86065L0.1541 0.773612C0.105332 0.731993 0.0665702 0.682232 0.0401031 0.627267C0.013636 0.572302 0 0.513246 0 0.453586C0 0.393925 0.013636 0.33487 0.0401031 0.279905C0.0665702 0.22494 0.105332 0.175179 0.1541 0.13356H0.15298Z" fill="black"/>
<path d="M0.15298 0.13356C0.252994 0.0479359 0.387253 0 0.527059 0C0.666865 0 0.801125 0.0479359 0.901138 0.13356L6.5 4.91726L12.0977 0.13356C12.1978 0.0479359 12.332 0 12.4718 0C12.6116 0 12.7459 0.0479359 12.8459 0.13356C12.8947 0.175179 12.9334 0.22494 12.9599 0.279905C12.9864 0.33487 13 0.393925 13 0.453586C13 0.513246 12.9864 0.572302 12.9599 0.627267C12.9334 0.682232 12.8947 0.731993 12.8459 0.773612L6.89088 5.86065C6.7863 5.95 6.64604 6 6.5 6C6.35396 6 6.2137 5.95 6.10912 5.86065L0.1541 0.773612C0.105332 0.731993 0.0665702 0.682232 0.0401031 0.627267C0.013636 0.572302 0 0.513246 0 0.453586C0 0.393925 0.013636 0.33487 0.0401031 0.279905C0.0665702 0.22494 0.105332 0.175179 0.1541 0.13356H0.15298Z" stroke="black"/>
</svg>
