<svg width="84" height="58" viewBox="0 0 84 58" fill="none" xmlns="http://www.w3.org/2000/svg">
<path d="M40.3694 20.522V7.12951H44.268V20.522H40.3694Z" fill="white"/>
<path d="M48.8013 20.896V0.985533H52.6279V17.5001H62.3108V20.896H48.8013Z" fill="white"/>
<path d="M32.5829 40.4247H28.5917L24.9358 27.6574L20.2728 40.3886H18.8024L14.1387 27.6574L11.6172 40.6108H7.66809L12.7041 20.5202H14.8891L19.5381 32.5318L25.2519 18.5975L32.5829 40.4247Z" fill="white"/>
<path d="M14.8997 53.9252V41.8444L12.933 42.3185V45.6952C12.4056 45.4317 11.8208 45.3 11.1782 45.3C10.007 45.3 9.03347 45.7215 8.25634 46.5625C7.47847 47.4048 7.08936 48.4959 7.08936 49.8356C7.08936 51.1754 7.42755 52.2202 8.10534 52.97C8.78312 53.7197 9.71197 54.0938 10.8938 54.0938C11.3099 54.0938 11.7127 54.0253 12.1036 53.8865C12.4934 53.7496 12.7698 53.5908 12.933 53.4118V53.9252H14.8997ZM12.933 51.9217C12.8481 52.0376 12.6672 52.1528 12.3905 52.2658C12.113 52.38 11.8799 52.4362 11.6898 52.4362C9.99013 52.4362 9.14064 51.5547 9.14064 49.79C9.14064 48.8874 9.3538 48.1938 9.78228 47.711C10.209 47.2281 10.8193 46.9857 11.6108 46.9857C12.0702 46.9857 12.5109 47.1543 12.933 47.4932V51.9217Z" fill="white"/>
<path d="M28.9447 49.201C28.9447 48.0674 28.5742 47.1332 27.8332 46.4004C27.0904 45.6671 26.1072 45.3 24.8826 45.3C23.7303 45.3 22.7428 45.7145 21.9193 46.5433C21.0964 47.372 20.6848 48.4537 20.6848 49.7882C20.6848 51.1438 21.0588 52.2009 21.8069 52.9577C22.5549 53.7152 23.5733 54.0938 24.8587 54.0938C26.2346 54.0938 27.2689 53.8128 27.9614 53.2509L27.1976 51.7338C26.7288 52.2026 26.0457 52.4362 25.1484 52.4362C24.4285 52.4362 23.8553 52.2493 23.4293 51.8743C23.0044 51.5002 22.7726 50.9763 22.7358 50.3009H28.7796C28.8903 49.811 28.9447 49.4441 28.9447 49.201ZM24.9096 46.9577C26.1335 46.9577 26.8148 47.5758 26.95 48.8119H22.82C23.0922 47.5758 23.7893 46.9577 24.9096 46.9577Z" fill="white"/>
<path d="M34.3828 53.3907L35.0852 51.8181C35.6734 52.2869 36.3389 52.5204 37.0806 52.5204C37.8479 52.5204 38.2318 52.2465 38.2318 51.6969C38.2318 51.3749 38.1159 51.1104 37.8859 50.905C37.6541 50.6995 37.2046 50.4562 36.5373 50.1763C35.0828 49.5698 34.3547 48.7199 34.3547 47.6277C34.3547 46.8945 34.6339 46.323 35.1906 45.914C35.749 45.5048 36.4612 45.3 37.3293 45.3C38.2072 45.3 39.0325 45.4985 39.8051 45.8954L39.2379 47.4352C38.806 47.0612 38.2072 46.8733 37.4399 46.8733C36.7499 46.8733 36.4056 47.1484 36.4056 47.6969C36.4056 47.914 36.5187 48.1095 36.7445 48.2834C36.971 48.4572 37.454 48.6908 38.195 48.984C38.9359 49.2772 39.4691 49.6319 39.7946 50.0498C40.1205 50.466 40.2827 50.97 40.2827 51.561C40.2827 52.3477 39.993 52.9664 39.4118 53.4177C38.8306 53.869 38.0404 54.0938 37.0413 54.0938C36.4787 54.0938 36.0281 54.0481 35.6893 53.955C35.3492 53.8637 34.9148 53.6751 34.3828 53.3907Z" fill="white"/>
<path d="M46.7892 53.9253V47.0982H45.6938V45.4687H48.7842V53.9253H46.7892ZM47.8006 42.1817C48.1188 42.1817 48.3898 42.294 48.6146 42.5188C48.8393 42.7446 48.9528 43.0157 48.9528 43.3335C48.9528 43.6514 48.8393 43.9235 48.6146 44.1483C48.3898 44.3731 48.1188 44.4854 47.8006 44.4854C47.4827 44.4854 47.2116 44.3731 46.9869 44.1483C46.7614 43.9235 46.649 43.6514 46.649 43.3335C46.649 43.0157 46.7614 42.7446 46.9869 42.5188C47.2116 42.294 47.4827 42.1817 47.8006 42.1817Z" fill="white"/>
<path d="M58.3337 57.2402C59.4212 57.2402 60.3512 56.9944 61.122 56.5056C61.8936 56.0146 62.2792 55.3403 62.2792 54.4834C62.2792 52.9312 61.3152 52.1551 59.3871 52.1551C59.1126 52.1551 58.7825 52.1972 58.3969 52.2815C58.0106 52.3658 57.7366 52.4079 57.5733 52.4079C57.2081 52.4079 57.0255 52.3043 57.0255 52.0954C57.0255 51.976 57.1502 51.8601 57.3978 51.7477C57.6453 51.636 57.7882 51.5798 57.8251 51.5798L58.1493 51.6178C58.387 51.6388 58.5778 51.6494 58.72 51.6494C59.6161 51.6494 60.3593 51.3631 60.9475 50.789C61.5358 50.2158 61.8296 49.4492 61.8296 48.4905C61.8296 47.8197 61.6664 47.2385 61.3398 46.7461L62.2792 46.0603L60.9114 44.8223L60.1352 45.7249C59.6232 45.4422 58.9875 45.2999 58.2283 45.2999C57.2573 45.2999 56.4397 45.595 55.7753 46.1856C55.1104 46.7766 54.7779 47.5229 54.7779 48.4255C54.7779 49.5703 55.2608 50.4546 56.2265 51.0787C55.9238 51.2051 55.6576 51.4028 55.4293 51.6715C55.2011 51.9401 55.0869 52.213 55.0869 52.4922C55.0869 53.4667 55.7683 53.9531 57.1318 53.9531C57.3538 53.9531 57.6839 53.925 58.1219 53.8689C58.5601 53.8127 58.8903 53.7846 59.1133 53.7846C59.9315 53.7846 60.3407 54.0374 60.3407 54.5414C60.3407 54.8399 60.1563 55.0734 59.7858 55.2437C59.4153 55.4134 58.9447 55.4984 58.374 55.4984C57.5235 55.4984 56.7515 55.1798 56.0597 54.5431L54.8059 56.0901C55.8578 56.8567 57.0336 57.2402 58.3337 57.2402ZM57.2292 47.3509C57.5143 47.0699 57.8848 46.9294 58.34 46.9294C58.7733 46.9294 59.1266 47.0752 59.3984 47.3667C59.671 47.6581 59.8068 48.0146 59.8068 48.436C59.8068 48.947 59.6804 49.3473 59.4258 49.6388C59.173 49.9303 58.8102 50.0761 58.34 50.0761C57.8694 50.0761 57.4943 49.9268 57.2169 49.6276C56.9394 49.328 56.8007 48.9312 56.8007 48.436C56.8007 47.9935 56.944 47.6318 57.2292 47.3509Z" fill="white"/>
<path d="M73.3953 53.9253V49.035C73.3953 48.3134 73.2555 47.7876 72.978 47.4558C72.7006 47.1239 72.2476 46.9578 71.6173 46.9578C71.3257 46.9578 71.0149 47.0396 70.6848 47.2029C70.3547 47.3658 70.0966 47.5689 69.9115 47.8111V53.9253H67.9449V45.4687H69.3662L69.7296 46.259C70.2669 45.6197 71.0589 45.3001 72.1071 45.3001C73.1133 45.3001 73.9069 45.6022 74.4881 46.2056C75.0712 46.8085 75.3619 47.6514 75.3619 48.7313V53.9253H73.3953Z" fill="white"/>
<path d="M47.2344 40.4766H50.5496V33.7619H51.8093C52.3266 33.7619 52.7505 33.8848 53.0834 34.1289C53.4159 34.374 53.6927 34.7656 53.914 35.3036L56.0176 40.4766H59.7436L57.0728 34.15C56.8621 33.6724 56.6244 33.2878 56.3582 32.9998C56.0931 32.7101 55.7594 32.5188 55.3591 32.4239V32.3782C56.2219 32.1763 56.9658 31.7707 57.5909 31.1625C58.216 30.5538 58.5286 29.6882 58.5286 28.5662C58.5286 27.3293 58.1299 26.2799 57.3345 25.4177C56.5391 24.5566 55.1045 24.1254 53.029 24.1254H47.2344V40.4766ZM52.3266 26.7101C53.3977 26.7101 54.1275 26.9384 54.5163 27.3943C54.9061 27.8497 55.101 28.3582 55.101 28.9184C55.101 29.4634 54.8832 29.9761 54.4477 30.4566C54.0133 30.9366 53.3064 31.1772 52.3266 31.1772H50.5496V26.7101H52.3266Z" fill="white"/>
<path d="M29.5171 40.7188H33.0712L34.4523 37.0664H41.201L42.5812 40.7188H46.3178L39.8261 24.3676H36.038L29.5171 40.7188ZM37.7664 27.6505H37.8181L40.2195 34.3413H35.5013L37.7664 27.6505Z" fill="white"/>
<path d="M61.0131 17.4156H65.115V28.9573H65.2063L72.4664 20.3743H77.3151L68.9148 29.4817L77.835 40.4902H72.6701L65.2063 30.4815H65.115V40.4902H61.0131V17.4156Z" fill="white"/>
<path d="M31.7313 22.7866H30.0966L25.187 8.5906L20.3986 22.7866H18.762L11.3995 -0.000116348H15.5733L19.7657 13.581L24.3266 -0.000116348H26.085L30.6479 13.581L34.8411 -0.000116348H39.0131L31.7313 22.7866Z" fill="white"/>
<path d="M44.433 3.77059C44.433 4.93825 43.4862 5.88574 42.3189 5.88574C41.1512 5.88574 40.2037 4.93825 40.2037 3.77059C40.2037 2.60391 41.1512 1.65641 42.3189 1.65641C43.4862 1.65641 44.433 2.60391 44.433 3.77059Z" fill="white"/>
</svg>
